<mxfile host="app.diagrams.net" modified="2023-02-23T07:28:12.899Z" agent="5.0 (Macintosh; Intel Mac OS X 10_15_7) AppleWebKit/537.36 (KHTML, like Gecko) Chrome/110.0.0.0 Safari/537.36" etag="xMq9FV7pFLt4zeMWIevs" version="20.8.20" type="github">
  <diagram name="Page-1" id="0RoXZsUzvkpFgtAO-AeV">
    <mxGraphModel dx="1234" dy="1163" grid="1" gridSize="10" guides="1" tooltips="1" connect="1" arrows="1" fold="1" page="1" pageScale="1" pageWidth="827" pageHeight="1169" math="0" shadow="0">
      <root>
        <mxCell id="0" />
        <mxCell id="1" parent="0" />
        <mxCell id="06V7cyF9oRUQFHMhmIxx-1" value="IndexPage" style="rounded=1;whiteSpace=wrap;html=1;fontFamily=Courier New;fontSize=18;fontStyle=1;fillColor=#d5e8d4;strokeColor=#82b366;" vertex="1" parent="1">
          <mxGeometry x="100" y="100" width="120" height="60" as="geometry" />
        </mxCell>
        <mxCell id="06V7cyF9oRUQFHMhmIxx-2" value="/" style="rounded=0;whiteSpace=wrap;html=1;fontFamily=Courier New;fontSize=26;fontStyle=1;fillColor=none;strokeColor=none;" vertex="1" parent="1">
          <mxGeometry x="100" y="50" width="120" height="50" as="geometry" />
        </mxCell>
        <mxCell id="06V7cyF9oRUQFHMhmIxx-7" style="edgeStyle=orthogonalEdgeStyle;rounded=0;orthogonalLoop=1;jettySize=auto;html=1;exitX=0.5;exitY=1;exitDx=0;exitDy=0;entryX=0.5;entryY=0;entryDx=0;entryDy=0;fontFamily=Courier New;fontSize=16;endArrow=none;endFill=0;" edge="1" parent="1" source="06V7cyF9oRUQFHMhmIxx-3" target="06V7cyF9oRUQFHMhmIxx-5">
          <mxGeometry relative="1" as="geometry" />
        </mxCell>
        <mxCell id="06V7cyF9oRUQFHMhmIxx-12" style="edgeStyle=orthogonalEdgeStyle;rounded=0;orthogonalLoop=1;jettySize=auto;html=1;exitX=0.75;exitY=1;exitDx=0;exitDy=0;entryX=0.5;entryY=0;entryDx=0;entryDy=0;fontFamily=Courier New;fontSize=16;fontColor=#FF8000;endArrow=none;endFill=0;curved=1;" edge="1" parent="1" source="06V7cyF9oRUQFHMhmIxx-3" target="06V7cyF9oRUQFHMhmIxx-11">
          <mxGeometry relative="1" as="geometry" />
        </mxCell>
        <mxCell id="06V7cyF9oRUQFHMhmIxx-3" value="ProductListPage" style="rounded=1;whiteSpace=wrap;html=1;fontFamily=Courier New;fontSize=18;fontStyle=1;fillColor=#d5e8d4;strokeColor=#82b366;" vertex="1" parent="1">
          <mxGeometry x="415" y="100" width="170" height="60" as="geometry" />
        </mxCell>
        <mxCell id="06V7cyF9oRUQFHMhmIxx-4" value="/product-list" style="rounded=0;whiteSpace=wrap;html=1;fontFamily=Courier New;fontSize=19;fontStyle=1;fillColor=none;strokeColor=none;" vertex="1" parent="1">
          <mxGeometry x="440" y="50" width="120" height="50" as="geometry" />
        </mxCell>
        <mxCell id="06V7cyF9oRUQFHMhmIxx-15" style="edgeStyle=orthogonalEdgeStyle;curved=1;rounded=0;orthogonalLoop=1;jettySize=auto;html=1;exitX=0.5;exitY=1;exitDx=0;exitDy=0;entryX=0.5;entryY=0;entryDx=0;entryDy=0;fontFamily=Courier New;fontSize=16;fontColor=#FF8000;endArrow=none;endFill=0;endSize=13;" edge="1" parent="1" source="06V7cyF9oRUQFHMhmIxx-5" target="06V7cyF9oRUQFHMhmIxx-8">
          <mxGeometry relative="1" as="geometry" />
        </mxCell>
        <mxCell id="06V7cyF9oRUQFHMhmIxx-5" value="Category" style="rounded=1;whiteSpace=wrap;html=1;fontFamily=Courier New;fontSize=18;fontStyle=1;fillColor=#d5e8d4;strokeColor=#82b366;" vertex="1" parent="1">
          <mxGeometry x="440" y="220" width="120" height="60" as="geometry" />
        </mxCell>
        <mxCell id="06V7cyF9oRUQFHMhmIxx-14" style="edgeStyle=orthogonalEdgeStyle;rounded=0;orthogonalLoop=1;jettySize=auto;html=1;exitX=0;exitY=0.5;exitDx=0;exitDy=0;entryX=0.876;entryY=0;entryDx=0;entryDy=0;entryPerimeter=0;fontFamily=Courier New;fontSize=16;fontColor=#FF8000;endArrow=classic;endFill=1;curved=1;endSize=13;" edge="1" parent="1" source="06V7cyF9oRUQFHMhmIxx-6" target="06V7cyF9oRUQFHMhmIxx-3">
          <mxGeometry relative="1" as="geometry" />
        </mxCell>
        <mxCell id="06V7cyF9oRUQFHMhmIxx-6" value="fetchMockup()" style="ellipse;whiteSpace=wrap;html=1;fontFamily=Courier New;fontSize=16;fillColor=none;strokeColor=#FF9933;fontColor=#FF8000;fontStyle=1" vertex="1" parent="1">
          <mxGeometry x="630" y="70" width="150" height="40" as="geometry" />
        </mxCell>
        <mxCell id="06V7cyF9oRUQFHMhmIxx-16" style="edgeStyle=orthogonalEdgeStyle;curved=1;rounded=0;orthogonalLoop=1;jettySize=auto;html=1;exitX=0.5;exitY=1;exitDx=0;exitDy=0;entryX=0.5;entryY=0;entryDx=0;entryDy=0;fontFamily=Courier New;fontSize=16;fontColor=#FF8000;endArrow=none;endFill=0;endSize=13;" edge="1" parent="1" source="06V7cyF9oRUQFHMhmIxx-8" target="06V7cyF9oRUQFHMhmIxx-10">
          <mxGeometry relative="1" as="geometry" />
        </mxCell>
        <mxCell id="06V7cyF9oRUQFHMhmIxx-8" value="Meal" style="rounded=1;whiteSpace=wrap;html=1;fontFamily=Courier New;fontSize=18;fontStyle=1;fillColor=#d5e8d4;strokeColor=#82b366;" vertex="1" parent="1">
          <mxGeometry x="440" y="340" width="120" height="60" as="geometry" />
        </mxCell>
        <mxCell id="06V7cyF9oRUQFHMhmIxx-17" style="edgeStyle=orthogonalEdgeStyle;curved=1;rounded=0;orthogonalLoop=1;jettySize=auto;html=1;exitX=0.5;exitY=1;exitDx=0;exitDy=0;entryX=0.5;entryY=0;entryDx=0;entryDy=0;fontFamily=Courier New;fontSize=16;fontColor=#FF8000;endArrow=none;endFill=0;endSize=13;" edge="1" parent="1" source="06V7cyF9oRUQFHMhmIxx-10" target="06V7cyF9oRUQFHMhmIxx-13">
          <mxGeometry relative="1" as="geometry" />
        </mxCell>
        <mxCell id="06V7cyF9oRUQFHMhmIxx-10" value="Product" style="rounded=1;whiteSpace=wrap;html=1;fontFamily=Courier New;fontSize=18;fontStyle=1;fillColor=#d5e8d4;strokeColor=#82b366;" vertex="1" parent="1">
          <mxGeometry x="440" y="460" width="120" height="60" as="geometry" />
        </mxCell>
        <mxCell id="06V7cyF9oRUQFHMhmIxx-11" value="Cart" style="rounded=1;whiteSpace=wrap;html=1;fontFamily=Courier New;fontSize=18;fontStyle=1;fillColor=#dae8fc;strokeColor=#6c8ebf;" vertex="1" parent="1">
          <mxGeometry x="600" y="220" width="120" height="60" as="geometry" />
        </mxCell>
        <mxCell id="06V7cyF9oRUQFHMhmIxx-13" value="AddToCart" style="rounded=1;whiteSpace=wrap;html=1;fontFamily=Courier New;fontSize=18;fontStyle=1;fillColor=#dae8fc;strokeColor=#6c8ebf;" vertex="1" parent="1">
          <mxGeometry x="440" y="584.5" width="120" height="60" as="geometry" />
        </mxCell>
      </root>
    </mxGraphModel>
  </diagram>
</mxfile>
